<?xml version="1.0" encoding="UTF-8"?>
<svg version="1.1" xmlns="http://www.w3.org/2000/svg" width="511" height="512">
<path d="M0 0 C5.12583611 -0.10251672 9.94997778 -0.03590199 15 1 C15 1.66 15 2.32 15 3 C19.95 3.495 19.95 3.495 25 4 C25 4.66 25 5.32 25 6 C25.62648438 6.04898438 26.25296875 6.09796875 26.8984375 6.1484375 C27.71570313 6.22320312 28.53296875 6.29796875 29.375 6.375 C30.59316406 6.47941406 30.59316406 6.47941406 31.8359375 6.5859375 C34 7 34 7 36 9 C36.58523438 9.13664062 37.17046875 9.27328125 37.7734375 9.4140625 C40.78053726 10.20540454 43.00969626 11.70430731 45.625 13.375 C46.58664062 13.98085937 47.54828125 14.58671875 48.5390625 15.2109375 C51 17 51 17 53 20 C53.99 20.4640625 53.99 20.4640625 55 20.9375 C57 22 57 22 57.93359375 23.875 C59.06774576 26.13499522 60.21574912 27.35545604 62.0625 29.0625 C72.2425896 38.96630324 81.14499335 49.39791757 82.3125 63.875 C81.69454611 82.52266729 66.77023014 97.92637706 55.11083984 111.15551758 C51.57306424 115.19775157 48.19907609 119.30207881 46 124.25 C45 126 45 126 43.0625 126.9375 C39.40277799 128.82281134 38.25325461 132.24023618 37 136 C36.09507812 136.41765625 36.09507812 136.41765625 35.171875 136.84375 C22.56838007 143.55352428 15.68294693 172.10187483 11.32055664 184.41333008 C9.13295237 190.46201254 6.53136834 196.0147849 3.35400391 201.60961914 C2.51116947 203.09757298 1.70508287 204.60773944 0.95849609 206.14624023 C-0.56861162 209.09971167 -2.43942353 210.89463712 -5 213 C-8.1875 213.8125 -8.1875 213.8125 -12 214 C-13.16595703 214.05800781 -13.16595703 214.05800781 -14.35546875 214.1171875 C-21.62828416 214.32014979 -31.81674579 213.89008814 -37.44921875 208.65234375 C-39.01492521 206.98409732 -40.47984665 205.26310326 -41.9375 203.5 C-44.64102565 200.32017083 -47.24171307 197.87914347 -51 196 C-51.33604821 194.33387861 -51.66899019 192.66712969 -52 191 C-53.12251488 188.93861336 -53.12251488 188.93861336 -54.5625 186.875 C-69.91136053 161.96999794 -74.36715816 131.60597007 -76.3125 102.9375 C-76.40104248 101.6784082 -76.48958496 100.41931641 -76.58081055 99.12207031 C-77.38559808 85.51303277 -77.24567802 73.39407133 -71 61 C-70.690625 60.29359375 -70.38125 59.5871875 -70.0625 58.859375 C-68.80999192 56.66748586 -67.4187127 55.48855379 -65.4375 53.9375 C-62.80562347 51.87467786 -62.09567461 51.28702382 -61 48 C-59.66666667 47.66666667 -58.33333333 47.33333333 -57 47 C-56.67 46.01 -56.34 45.02 -56 44 C-55.1028125 43.8453125 -55.1028125 43.8453125 -54.1875 43.6875 C-51.63870831 43.13780742 -51.63870831 43.13780742 -50 40 C-49.34 39.01 -48.68 38.02 -48 37 C-47.40703125 36.88398438 -46.8140625 36.76796875 -46.203125 36.6484375 C-42.84000813 35.65858395 -41.00080507 33.17614921 -38.75 30.625 C-38.27054932 30.09132812 -37.79109863 29.55765625 -37.29711914 29.0078125 C-29.73338236 20.56066925 -29.73338236 20.56066925 -24.0546875 10.85546875 C-22.66384106 8.40860927 -21.15497841 7.62710614 -18.6875 6.3125 C-17.92824219 5.89613281 -17.16898438 5.47976562 -16.38671875 5.05078125 C-12.44900765 3.31715721 -8.43655715 2.88143134 -4.1875 2.4375 C-3.39730469 2.35371094 -2.60710937 2.26992187 -1.79296875 2.18359375 C-1.20128906 2.12300781 -0.60960937 2.06242187 0 2 C0 1.34 0 0.68 0 0 Z M-5 16 C-5.5878125 16.34160156 -6.175625 16.68320313 -6.78125 17.03515625 C-7.3484375 17.37417969 -7.915625 17.71320313 -8.5 18.0625 C-10.49975674 19.23257043 -11.83158021 19.97027886 -14.125 20.375 C-17.44038218 21.48012739 -18.98608563 24.27849409 -21 27 C-21.33 27.99 -21.66 28.98 -22 30 C-22.70125 30.556875 -23.4025 31.11375 -24.125 31.6875 C-27.20037655 34.16117244 -29.54218519 36.84424522 -32.08984375 39.83984375 C-34.70735844 42.79993705 -37.53740797 45.5153323 -40.3984375 48.23828125 C-42.22904557 50.01353029 -42.22904557 50.01353029 -43 53 C-44.33333333 53.33333333 -45.66666667 53.66666667 -47 54 C-47.33 54.99 -47.66 55.98 -48 57 C-48.8971875 57.1546875 -48.8971875 57.1546875 -49.8125 57.3125 C-53.18585404 58.37269698 -54.09637143 61.11571428 -56 64 C-56.845625 64.495 -57.69125 64.99 -58.5625 65.5 C-62.29081497 67.79434767 -63.47070106 70.99961503 -64.56640625 75.140625 C-69.70989403 109.05984172 -61.86115423 157.83059702 -41.625 186.0625 C-40.75875 187.031875 -39.8925 188.00125 -39 189 C-38.34 189 -37.68 189 -37 189 C-36.896875 189.61875 -36.79375 190.2375 -36.6875 190.875 C-36.12474627 193.36526484 -36.12474627 193.36526484 -33 195 C-31.3364521 195.67441131 -29.66933058 196.3400321 -28 197 C-27.154375 197.53625 -26.30875 198.0725 -25.4375 198.625 C-20.46737603 200.61304959 -15.26379566 201.11434114 -10 200 C-6.47690248 196.59137135 -4.62794238 192.45990263 -2.75 188 C-2.30611938 186.97036133 -2.30611938 186.97036133 -1.85327148 185.91992188 C0.58656005 180.17794299 2.76283064 174.34625119 4.9375 168.5 C11.87679233 149.94482616 21.15310074 134.12812115 33.81640625 118.89453125 C39.44082203 112.30722985 39.44082203 112.30722985 44 105 C44.86625 104.319375 45.7325 103.63875 46.625 102.9375 C51.42486866 99.04414406 56.03277312 93.90168063 58 88 C59.0828125 87.01 59.0828125 87.01 60.1875 86 C66.12473179 80.33972363 70.03310429 71.92600074 70.3125 63.75 C70.07055087 53.12152055 62.1254438 46.06889266 55 39 C54.34 38.67 53.68 38.34 53 38 C51.97591432 37.0246803 50.98165594 36.01801357 50 35 C46.82167141 31.57125756 46.82167141 31.57125756 43 29 C42.01 28.01 42.01 28.01 41 27 C40.01 26.505 40.01 26.505 39 26 C38.505 25.01 38.505 25.01 38 24 C36.00511766 23.63729412 34.00401011 23.30830925 32 23 C30.31624835 22.37774395 28.64232772 21.72455635 27 21 C27 20.34 27 19.68 27 19 C26.39671875 18.86722656 25.7934375 18.73445313 25.171875 18.59765625 C24.37265625 18.42105469 23.5734375 18.24445313 22.75 18.0625 C21.56664062 17.80146484 21.56664062 17.80146484 20.359375 17.53515625 C19.58078125 17.35855469 18.8021875 17.18195313 18 17 C17.32453125 16.85433594 16.6490625 16.70867187 15.953125 16.55859375 C14 16 14 16 12.09375 14.953125 C9.44944146 13.74937261 7.39612028 13.73408725 4.5 13.75 C3.09234375 13.74226563 3.09234375 13.74226563 1.65625 13.734375 C-1.10158732 14.01015873 -2.63877387 14.59802198 -5 16 Z M-22 201 C-22 201.33 -22 201.66 -22 202 C-19.69 202 -17.38 202 -15 202 C-15 201.67 -15 201.34 -15 201 C-17.31 201 -19.62 201 -22 201 Z " fill="#000000" transform="translate(257,105)"/>
<path d="M0 0 C14.19 0 28.38 0 43 0 C43 0.66 43 1.32 43 2 C43.928125 2.309375 44.85625 2.61875 45.8125 2.9375 C52 5 52 5 53 6.8203125 C53.495 7.89925781 53.495 7.89925781 54 9 C55.47293127 10.97725013 57.01105843 12.88865716 58.5625 14.8046875 C63.10496847 21.74182684 63.0286478 30.39854514 61.5703125 38.33984375 C60.00548995 43.21783998 57.03919917 46.58159243 53.5234375 50.23828125 C51.77801117 52.03040551 51.77801117 52.03040551 51 55 C48.30727573 55.83229659 45.75170693 56.44723649 43 57 C42.32976807 57.17313721 41.65953613 57.34627441 40.96899414 57.5246582 C32.66250887 59.52582933 24.36309102 59.21971258 15.875 59.125 C10.63625 59.08375 5.3975 59.0425 0 59 C0 39.53 0 20.06 0 0 Z M14 13 C14 23.89 14 34.78 14 46 C14.33 46 14.66 46 15 46 C15 35.11 15 24.22 15 13 C14.67 13 14.34 13 14 13 Z M16 13 C16 13.33 16 13.66 16 14 C21.61 14 27.22 14 33 14 C33 13.67 33 13.34 33 13 C27.39 13 21.78 13 16 13 Z M16 15 C16 24.57 16 34.14 16 44 C20.4859375 44.0309375 20.4859375 44.0309375 25.0625 44.0625 C25.99070557 44.071604 26.91891113 44.08070801 27.87524414 44.09008789 C36.77588777 44.51940905 36.77588777 44.51940905 44.3125 40.8125 C47.9463717 34.75604716 48.68009772 29.81778783 47 23 C45.43559628 19.48337944 45.43559628 19.48337944 43 17 C40.49582411 16.09871362 40.49582411 16.09871362 38 16 C37.01 15.67 36.02 15.34 35 15 C33.51876453 14.9193378 32.03417796 14.89238807 30.55078125 14.90234375 C29.78677002 14.90484131 29.02275879 14.90733887 28.2355957 14.90991211 C27.27097412 14.91901611 26.30635254 14.92812012 25.3125 14.9375 C22.239375 14.958125 19.16625 14.97875 16 15 Z M16 45 C16 45.33 16 45.66 16 46 C21.61 46 27.22 46 33 46 C33 45.67 33 45.34 33 45 C27.39 45 21.78 45 16 45 Z " fill="#000000" transform="translate(71,346)"/>
<path d="M0 0 C0 0.66 0 1.32 0 2 C0.928125 2.061875 1.85625 2.12375 2.8125 2.1875 C6 3 6 3 7.75 5.4375 C8.1625 6.283125 8.575 7.12875 9 8 C9.66 8.66 10.32 9.32 11 10 C11.66 7.69 12.32 5.38 13 3 C17.29 3 21.58 3 26 3 C26 18.18 26 33.36 26 49 C21.71 49 17.42 49 13 49 C12.34 46.36 11.68 43.72 11 41 C11 42.98 11 44.96 11 47 C10.34 46.34 9.68 45.68 9 45 C8.39671875 45.34933594 7.7934375 45.69867188 7.171875 46.05859375 C5.97304688 46.74115234 5.97304688 46.74115234 4.75 47.4375 C3.96109375 47.88996094 3.1721875 48.34242188 2.359375 48.80859375 C-2.1076858 51.06431154 -6.00493424 51.26759281 -11 51 C-13.1875 50.0625 -13.1875 50.0625 -15 49 C-15.680625 48.855625 -16.36125 48.71125 -17.0625 48.5625 C-20.79937835 47.47759983 -22.82606365 44.02004704 -25.0625 41 C-25.56910156 40.319375 -26.07570313 39.63875 -26.59765625 38.9375 C-27.7695708 37.31836457 -28.89129552 35.66305671 -30 34 C-30.99 34.66 -31.98 35.32 -33 36 C-32.67 35.01 -32.34 34.02 -32 33 C-30.37788823 27.31685664 -30.56438065 21.74247741 -32 16 C-31.01 16 -30.02 16 -29 16 C-27.63109591 14.403484 -27.63109591 14.403484 -26.5 12.3125 C-26.06558594 11.58289063 -25.63117188 10.85328125 -25.18359375 10.1015625 C-24.27258482 8.48399549 -23.40739751 6.84056034 -22.5625 5.1875 C-19.9253188 1.49544632 -16.45989405 0.38930508 -12.1875 -0.75 C-8.02919237 -1.07614178 -4.11620798 -0.59456337 0 0 Z M-14 1 C-14 1.33 -14 1.66 -14 2 C-12.35 2 -10.7 2 -9 2 C-9 1.67 -9 1.34 -9 1 C-10.65 1 -12.3 1 -14 1 Z M-8 13 C-8 13.33 -8 13.66 -8 14 C-5.03 14 -2.06 14 1 14 C1 13.67 1 13.34 1 13 C-1.97 13 -4.94 13 -8 13 Z M-11 17 C-11.66 16.67 -12.32 16.34 -13 16 C-14.93726484 19.26479293 -15.29708488 21.78579661 -15.3125 25.5625 C-15.32925781 26.51253906 -15.34601563 27.46257812 -15.36328125 28.44140625 C-15.20608219 31.03769869 -15.20608219 31.03769869 -13.60546875 32.83984375 C-12.05995573 34.19523551 -12.05995573 34.19523551 -10 34 C-9.67 34.33 -9.34 34.66 -9 35 C-3.49851795 35.44550608 2.01030554 35.55286693 7 33 C9.21192854 31.10324263 10.36956229 29.51976737 12 27 C12.18570047 23.28599056 10.88127751 21.82851195 8.75 18.75 C5.79695472 15.79695472 5.04701384 15.18395517 1 15 C-0.09441406 14.94392578 -0.09441406 14.94392578 -1.2109375 14.88671875 C-6.40123887 14.66192384 -6.40123887 14.66192384 -11 17 Z M-8 36 C-8 36.33 -8 36.66 -8 37 C-5.03 37 -2.06 37 1 37 C1 36.67 1 36.34 1 36 C-1.97 36 -4.94 36 -8 36 Z M-4 48 C0 49 0 49 0 49 Z M-10 49 C-10 49.33 -10 49.66 -10 50 C-8.35 50 -6.7 50 -5 50 C-5 49.67 -5 49.34 -5 49 C-6.65 49 -8.3 49 -10 49 Z " fill="#000000" transform="translate(330,356)"/>
<path d="M0 0 C0.41765625 0.55558594 0.8353125 1.11117188 1.265625 1.68359375 C1.760625 2.26496094 2.255625 2.84632813 2.765625 3.4453125 C11.08664823 14.12829284 10.84688573 23.37201476 9.6796875 36.4921875 C8.89701064 40.63446785 8.89701064 40.63446785 7.265625 42.68359375 C4.57897243 43.46985705 2.20039456 43.98275342 -0.546875 44.37109375 C-1.69168335 44.54608398 -1.69168335 44.54608398 -2.85961914 44.72460938 C-4.41373569 44.95463227 -5.9693792 45.17456991 -7.52636719 45.38427734 C-9.48770916 45.65015586 -11.44366502 45.9551121 -13.3984375 46.265625 C-21.0395816 47.24128421 -26.46433559 46.34850307 -32.734375 41.68359375 C-34.609375 39.30859375 -34.609375 39.30859375 -35.734375 36.68359375 C-36.415 35.65234375 -37.095625 34.62109375 -37.796875 33.55859375 C-41.89341439 26.33863927 -41.99974256 17.77730444 -41.734375 9.68359375 C-40.249375 10.67359375 -40.249375 10.67359375 -38.734375 11.68359375 C-35.859849 7.46656823 -35.859849 7.46656823 -33.546875 2.93359375 C-30.68280973 -0.62179762 -27.09056361 -0.67513991 -22.734375 -1.31640625 C-21.6825 -1.54328125 -20.630625 -1.77015625 -19.546875 -2.00390625 C-4.28800366 -3.25463341 -4.28800366 -3.25463341 0 0 Z M-21.734375 10.68359375 C-22.724375 12.16859375 -22.724375 12.16859375 -23.734375 13.68359375 C-22.54584645 15.10134213 -22.54584645 15.10134213 -19.13671875 14.78125 C-17.64840633 14.77457595 -16.16011068 14.76261558 -14.671875 14.74609375 C-13.53395508 14.73932617 -13.53395508 14.73932617 -12.37304688 14.73242188 C-10.49345629 14.72060055 -8.61390601 14.70266453 -6.734375 14.68359375 C-6.734375 14.02359375 -6.734375 13.36359375 -6.734375 12.68359375 C-8.03173007 11.63733966 -9.36704472 10.63658152 -10.734375 9.68359375 C-11.064375 9.35359375 -11.394375 9.02359375 -11.734375 8.68359375 C-15.56325432 8.36452047 -18.31625398 8.92834242 -21.734375 10.68359375 Z M-5.734375 12.68359375 C-4.734375 14.68359375 -4.734375 14.68359375 -4.734375 14.68359375 Z M-40.734375 13.68359375 C-39.734375 17.68359375 -39.734375 17.68359375 -39.734375 17.68359375 Z M-4.734375 14.68359375 C-3.734375 16.68359375 -3.734375 16.68359375 -3.734375 16.68359375 Z M-23.734375 15.68359375 C-23.734375 16.01359375 -23.734375 16.34359375 -23.734375 16.68359375 C-17.794375 16.68359375 -11.854375 16.68359375 -5.734375 16.68359375 C-5.734375 16.35359375 -5.734375 16.02359375 -5.734375 15.68359375 C-11.674375 15.68359375 -17.614375 15.68359375 -23.734375 15.68359375 Z M-24.734375 26.68359375 C-23.734375 28.68359375 -23.734375 28.68359375 -23.734375 28.68359375 Z M-21.734375 28.68359375 C-16.79268843 32.38985868 -13.70943396 32.40231423 -7.734375 32.68359375 C-6.82042969 32.73644531 -5.90648437 32.78929687 -4.96484375 32.84375 C-0.11065678 33.25892247 -0.11065678 33.25892247 4.05078125 31.23046875 C5.36856602 29.88033321 5.36856602 29.88033321 5.265625 28.68359375 C-3.644375 28.68359375 -12.554375 28.68359375 -21.734375 28.68359375 Z M-7.734375 32.68359375 C-7.734375 33.01359375 -7.734375 33.34359375 -7.734375 33.68359375 C-5.754375 33.68359375 -3.774375 33.68359375 -1.734375 33.68359375 C-1.734375 33.35359375 -1.734375 33.02359375 -1.734375 32.68359375 C-3.714375 32.68359375 -5.694375 32.68359375 -7.734375 32.68359375 Z M-12.734375 33.68359375 C-12.734375 34.01359375 -12.734375 34.34359375 -12.734375 34.68359375 C-11.084375 34.68359375 -9.434375 34.68359375 -7.734375 34.68359375 C-7.734375 34.35359375 -7.734375 34.02359375 -7.734375 33.68359375 C-9.384375 33.68359375 -11.034375 33.68359375 -12.734375 33.68359375 Z M-21.734375 44.68359375 C-21.734375 45.01359375 -21.734375 45.34359375 -21.734375 45.68359375 C-20.084375 45.68359375 -18.434375 45.68359375 -16.734375 45.68359375 C-16.734375 45.35359375 -16.734375 45.02359375 -16.734375 44.68359375 C-18.384375 44.68359375 -20.034375 44.68359375 -21.734375 44.68359375 Z " fill="#000000" transform="translate(175.734375,359.31640625)"/>
<path d="M0 0 C1.13824219 0.04253906 2.27648437 0.08507812 3.44921875 0.12890625 C11.98702055 0.62248151 11.98702055 0.62248151 16 4 C16.721875 4.309375 17.44375 4.61875 18.1875 4.9375 C20 6 20 6 20.5 7.75 C20.7475 8.86375 20.7475 8.86375 21 10 C21.639375 10.845625 22.27875 11.69125 22.9375 12.5625 C26.78896577 18.05258938 27.14153956 25.4773852 27 32 C26.34 32 25.68 32 25 32 C24.69707031 32.59167969 24.39414063 33.18335938 24.08203125 33.79296875 C20.89417426 39.80575747 17.65181568 45.45797616 11 48 C8.43206363 48.19467076 6.00154863 48.28431978 3.4375 48.25 C2.37438599 48.24202393 2.37438599 48.24202393 1.28979492 48.23388672 C-6.33148957 48.0975921 -14.06333052 47.37522508 -21 44 C-22.06098079 42.32815148 -23.115847 40.64655886 -24.0234375 38.88671875 C-25.4706197 36.09076274 -27.18262521 33.56939194 -29 31 C-29.33 31 -29.66 31 -30 31 C-29.98839844 30.41992188 -29.97679687 29.83984375 -29.96484375 29.2421875 C-29.91237826 24.7001754 -30.08248937 20.47286431 -31 16 C-30.01 16.33 -29.02 16.66 -28 17 C-27.54625 15.9275 -27.0925 14.855 -26.625 13.75 C-26.20927734 12.79287109 -26.20927734 12.79287109 -25.78515625 11.81640625 C-25.19344921 10.44753176 -24.62278385 9.0695335 -24.0625 7.6875 C-22.69773128 5.51992615 -21.34314575 4.95190296 -19 4 C-16.9371675 3.14541228 -16.9371675 3.14541228 -15.77734375 1.453125 C-11.79089608 -1.80612452 -4.88718048 -0.20635881 0 0 Z M-5 12 C-5 12.33 -5 12.66 -5 13 C-2.03 13 0.94 13 4 13 C4 12.67 4 12.34 4 12 C1.03 12 -1.94 12 -5 12 Z M-10 16 C-10.66 15.67 -11.32 15.34 -12 15 C-14.62219444 19.55212955 -14.69499236 23.8602891 -14 29 C-12.90965608 31.40823788 -11.72206345 32.95504966 -10 35 C-7.79112243 34.88501733 -5.58289213 34.75756495 -3.375 34.625 C-2.14523438 34.55539062 -0.91546875 34.48578125 0.3515625 34.4140625 C3.90260567 34.01105332 6.75841692 33.50884497 10 32 C10.33 30.68 10.66 29.36 11 28 C15.29 28 19.58 28 24 28 C25.06537205 23.52297636 25.06537205 23.52297636 25 21 C20.38 21 15.76 21 11 21 C10.67 19.35 10.34 17.7 10 16 C9.01 16 8.02 16 7 16 C6.01 15.34 5.02 14.68 4 14 C1.35893458 13.68269144 1.35893458 13.68269144 -1.5 13.75 C-2.4590625 13.74484375 -3.418125 13.7396875 -4.40625 13.734375 C-7.23622897 13.82017391 -7.23622897 13.82017391 -10 16 Z M-7 35 C-5.11683841 36.10836423 -5.11683841 36.10836423 -3 37 C-2.34 36.67 -1.68 36.34 -1 36 C-2.06645115 34.70366379 -2.06645115 34.70366379 -4.5625 34.9375 C-5.366875 34.958125 -6.17125 34.97875 -7 35 Z M-1 35 C-1 35.33 -1 35.66 -1 36 C0.65 36 2.3 36 4 36 C4 35.67 4 35.34 4 35 C2.35 35 0.7 35 -1 35 Z " fill="#000000" transform="translate(217,357)"/>
<path d="M0 0 C0 0.66 0 1.32 0 2 C0.61488281 2.08636719 1.22976563 2.17273438 1.86328125 2.26171875 C8.54845793 3.4238946 8.54845793 3.4238946 10.8125 6.3125 C11.4003125 7.6428125 11.4003125 7.6428125 12 9 C12.680625 9.825 13.36125 10.65 14.0625 11.5 C16.7310749 14.94332246 18 17.63177175 18 22 C15.73020335 22.10794277 13.45894804 22.18556176 11.1875 22.25 C9.92292969 22.29640625 8.65835938 22.3428125 7.35546875 22.390625 C4 22 4 22 2.30078125 20.109375 C1.87152344 19.41328125 1.44226563 18.7171875 1 18 C-2.1275077 15.91058682 -4.72009866 15.72937641 -8.4375 15.75 C-9.36433594 15.74484375 -10.29117187 15.7396875 -11.24609375 15.734375 C-14.19638893 16.01894248 -16.35482482 16.6750798 -19 18 C-20.23887548 20.47775095 -20.16741669 22.23653707 -20.1875 25 C-20.20876953 26.3303125 -20.20876953 26.3303125 -20.23046875 27.6875 C-20.22713126 30.19519984 -20.22713126 30.19519984 -18 32 C-14.80044358 33.98834578 -12.30207962 34.27074663 -8.5625 34.25 C-7.63566406 34.25515625 -6.70882813 34.2603125 -5.75390625 34.265625 C-2.78857558 33.97960729 -0.64662778 33.36032966 2 32 C3.36078035 29.47627099 3.36078035 29.47627099 4 27 C4.495 27.99 4.495 27.99 5 29 C9.29 29 13.58 29 18 29 C16.18961502 35.28870573 14.50749243 39.26713295 10 44 C9.525625 44.556875 9.05125 45.11375 8.5625 45.6875 C4.04282864 49.48402394 0.622925 50.20537571 -5.1875 49.8125 C-21.75341358 48.07071251 -21.75341358 48.07071251 -28 45 C-30.125 41.6875 -30.125 41.6875 -31.08984375 39.78125 C-32.02057524 37.84443208 -32.02057524 37.84443208 -33.6875 35.6875 C-37.14867196 28.60033837 -36.07415503 21.76522121 -33.88671875 14.4453125 C-31.27700697 7.24848619 -26.83346321 4.03959433 -20.02734375 0.8203125 C-13.46187696 -1.83623476 -6.84212528 -0.80422811 0 0 Z M-17 1 C-17 1.33 -17 1.66 -17 2 C-14.69 2 -12.38 2 -10 2 C-10 1.67 -10 1.34 -10 1 C-12.31 1 -14.62 1 -17 1 Z M-12 13 C-12 13.33 -12 13.66 -12 14 C-9.69 14 -7.38 14 -5 14 C-5 13.67 -5 13.34 -5 13 C-7.31 13 -9.62 13 -12 13 Z M-15 36 C-15 36.33 -15 36.66 -15 37 C-12.69 37.33 -10.38 37.66 -8 38 C-8.33 37.34 -8.66 36.68 -9 36 C-10.98 36 -12.96 36 -15 36 Z M-8 36 C-8 36.33 -8 36.66 -8 37 C-6.35 37 -4.7 37 -3 37 C-3 36.67 -3 36.34 -3 36 C-4.65 36 -6.3 36 -8 36 Z M-5 48 C-5 48.33 -5 48.66 -5 49 C-3.35 49 -1.7 49 0 49 C0 48.67 0 48.34 0 48 C-1.65 48 -3.3 48 -5 48 Z " fill="#000000" transform="translate(280,356)"/>
<path d="M0 0 C1.02963867 0.01450195 1.02963867 0.01450195 2.08007812 0.02929688 C6.50258019 0.12552918 10.84012674 0.4507101 15.1875 1.3125 C16.875 3.4375 16.875 3.4375 18.1875 6.3125 C18.8886793 7.5042382 19.5973615 8.69158575 20.3125 9.875 C23.06905017 14.9286753 23.30955451 18.50763616 23.28515625 24.265625 C23.2837413 24.92584656 23.28232635 25.58606812 23.28086853 26.26629639 C23.27529245 28.36507794 23.26274447 30.46375095 23.25 32.5625 C23.2449819 33.98958179 23.24041954 35.41666525 23.23632812 36.84375 C23.22618377 40.33340832 23.20660401 43.82283332 23.1875 47.3125 C18.5675 47.3125 13.9475 47.3125 9.1875 47.3125 C9.13851562 45.64960938 9.08953125 43.98671875 9.0390625 42.2734375 C8.96400853 40.07810899 8.88846184 37.88279728 8.8125 35.6875 C8.7815625 34.59308594 8.750625 33.49867188 8.71875 32.37109375 C8.53408598 24.62079725 8.53408598 24.62079725 6.1875 17.3125 C2.86832446 15.09971631 1.10333639 14.85991143 -2.8125 14.5 C-3.864375 14.39042969 -4.91625 14.28085937 -6 14.16796875 C-8.80250777 14.05791321 -8.80250777 14.05791321 -10.625 15.61328125 C-13.04453561 19.0754457 -12.99443836 22.42005292 -13.12890625 26.51171875 C-13.17080078 27.72021484 -13.21269531 28.92871094 -13.25585938 30.17382812 C-13.29517578 31.43646484 -13.33449219 32.69910156 -13.375 34 C-13.41818359 35.27423828 -13.46136719 36.54847656 -13.50585938 37.86132812 C-13.61204789 41.01158727 -13.71278813 44.1620292 -13.8125 47.3125 C-18.4325 47.3125 -23.0525 47.3125 -27.8125 47.3125 C-27.8125 32.1325 -27.8125 16.9525 -27.8125 1.3125 C-24.1825 1.3125 -20.5525 1.3125 -16.8125 1.3125 C-16.1525 3.6225 -15.4925 5.9325 -14.8125 8.3125 C-14.19375 7.44625 -14.19375 7.44625 -13.5625 6.5625 C-12.985 5.82 -12.4075 5.0775 -11.8125 4.3125 C-11.27753906 3.61253906 -10.74257813 2.91257812 -10.19140625 2.19140625 C-6.90570412 -0.40370496 -3.99852171 -0.16614356 0 0 Z M-5.8125 12.3125 C-5.8125 12.6425 -5.8125 12.9725 -5.8125 13.3125 C-3.1725 13.3125 -0.5325 13.3125 2.1875 13.3125 C2.1875 12.9825 2.1875 12.6525 2.1875 12.3125 C-0.4525 12.3125 -3.0925 12.3125 -5.8125 12.3125 Z " fill="#000000" transform="translate(389.8125,357.6875)"/>
<path d="M0 0 C2.97 0 5.94 0 9 0 C10.67531673 3.93387538 12.33875803 7.87266263 14 11.8125 C14.47695313 12.93205078 14.95390625 14.05160156 15.4453125 15.20507812 C15.89648438 16.27822266 16.34765625 17.35136719 16.8125 18.45703125 C17.44091797 19.9416687 17.44091797 19.9416687 18.08203125 21.45629883 C19 24 19 24 19 27 C15.625 27.125 15.625 27.125 12 27 C11.34 26.34 10.68 25.68 10 25 C7.56747339 24.53837573 7.56747339 24.53837573 4.875 24.375 C3.96492188 24.30023438 3.05484375 24.22546875 2.1171875 24.1484375 C1.41851562 24.09945313 0.71984375 24.05046875 0 24 C-0.33 24.66 -0.66 25.32 -1 26 C-1.66 26.66 -2.32 27.32 -3 28 C-3 28.33 -3 28.66 -3 29 C-5.31 29 -7.62 29 -10 29 C-9.48397915 22.3104934 -7.04376051 16.69699068 -4.4375 10.5625 C-4.01275391 9.54478516 -3.58800781 8.52707031 -3.15039062 7.47851562 C-2.10747277 4.98254369 -1.05720058 2.48994786 0 0 Z M4 8 C5 10 5 10 5 10 Z M3 10 C4 13 4 13 4 13 Z M5 10 C6 12 6 12 6 12 Z M6 12 C7 15 7 15 7 15 Z M2 13 C3 15 3 15 3 15 Z M1 22 C1 22.33 1 22.66 1 23 C3.31 23 5.62 23 8 23 C8 22.67 8 22.34 8 22 C5.69 22 3.38 22 1 22 Z " fill="#000000" transform="translate(427,344)"/>
<path d="M0 0 C2.31 0 4.62 0 7 0 C7 8.91 7 17.82 7 27 C4.69 27 2.38 27 0 27 C0 18.09 0 9.18 0 0 Z " fill="#000000" transform="translate(447,344)"/>
<path d="M0 0 C0.33 0 0.66 0 1 0 C1 19.14 1 38.28 1 58 C0.67 58 0.34 58 0 58 C0 38.86 0 19.72 0 0 Z " fill="#000000" transform="translate(69,346)"/>
<path d="M0 0 C0.33 0 0.66 0 1 0 C1 14.85 1 29.7 1 45 C0.67 45 0.34 45 0 45 C0 30.15 0 15.3 0 0 Z " fill="#000000" transform="translate(360,359)"/>
<path d="M0 0 C0.33 0 0.66 0 1 0 C1 14.85 1 29.7 1 45 C0.67 45 0.34 45 0 45 C0 30.15 0 15.3 0 0 Z " fill="#000000" transform="translate(357,359)"/>
<path d="M0 0 C0.33 0 0.66 0 1 0 C1 12.21 1 24.42 1 37 C0.67 37 0.34 37 0 37 C-1.73906556 7.59115919 -1.73906556 7.59115919 0 0 Z " fill="#000000" transform="translate(179,178)"/>
<path d="M0 0 C11.88 0 23.76 0 36 0 C36 0.33 36 0.66 36 1 C24.12 1 12.24 1 0 1 C0 0.67 0 0.34 0 0 Z " fill="#000000" transform="translate(71,344)"/>
<path d="M0 0 C10.89 0 21.78 0 33 0 C33 0.33 33 0.66 33 1 C22.11 1 11.22 1 0 1 C0 0.67 0 0.34 0 0 Z " fill="#000000" transform="translate(71,406)"/>
<path d="M0 0 C0.33 0 0.66 0 1 0 C1 9.57 1 19.14 1 29 C0.67 29 0.34 29 0 29 C0 19.43 0 9.86 0 0 Z " fill="#000000" transform="translate(414,375)"/>
<path d="M0 0 C0.33 0 0.66 0 1 0 C1 8.91 1 17.82 1 27 C0.67 27 0.34 27 0 27 C0 18.09 0 9.18 0 0 Z " fill="#000000" transform="translate(455,344)"/>
<path d="M0 0 C0.33 0 0.66 0 1 0 C1 8.25 1 16.5 1 25 C0.67 25 0.34 25 0 25 C0 16.75 0 8.5 0 0 Z " fill="#000000" transform="translate(377,379)"/>
<path d="M0 0 C0.33 0 0.66 0 1 0 C1 6.93 1 13.86 1 21 C-1.1165563 17.82516555 -1.22929149 17.33300995 -0.9765625 13.76953125 C-0.925 12.96708984 -0.8734375 12.16464844 -0.8203125 11.33789062 C-0.75585938 10.50451172 -0.69140625 9.67113281 -0.625 8.8125 C-0.56828125 7.96751953 -0.5115625 7.12253906 -0.453125 6.25195312 C-0.31179176 4.16728783 -0.1571675 2.08353134 0 0 Z " fill="#000000" transform="translate(445,345)"/>
<path d="M0 0 C0.33 0 0.66 0 1 0 C1 6.27 1 12.54 1 19 C0.67 19 0.34 19 0 19 C0 12.73 0 6.46 0 0 Z " fill="#000000" transform="translate(193,183)"/>
<path d="M0 0 C0.33 0 0.66 0 1 0 C1.33951619 1.56116819 1.67132544 3.12401338 2 4.6875 C2.185625 5.55761719 2.37125 6.42773438 2.5625 7.32421875 C2.98972047 9.93712964 3.07616201 12.35813038 3 15 C1.08697693 11.73386305 0.64325339 9.00554752 0.375 5.25 C0.30023438 4.26515625 0.22546875 3.2803125 0.1484375 2.265625 C0.09945312 1.51796875 0.05046875 0.7703125 0 0 Z " fill="#000000" transform="translate(183,238)"/>
<path d="M0 0 C0 0.33 0 0.66 0 1 C-4.76307437 1.95261487 -9.1666528 2.08333357 -14 2 C-14 1.67 -14 1.34 -14 1 C-9.27685687 0.22887459 -4.78478822 -0.09764874 0 0 Z " fill="#000000" transform="translate(173,405)"/>
<path d="M0 0 C0.33 0 0.66 0 1 0 C1 4.95 1 9.9 1 15 C0.67 15 0.34 15 0 15 C0 10.05 0 5.1 0 0 Z " fill="#000000" transform="translate(194,202)"/>
<path d="M0 0 C4.62 0 9.24 0 14 0 C14 0.33 14 0.66 14 1 C9.38 1 4.76 1 0 1 C0 0.67 0 0.34 0 0 Z " fill="#000000" transform="translate(362,406)"/>
<path d="M0 0 C4.29 0.33 8.58 0.66 13 1 C13 1.33 13 1.66 13 2 C8.48382401 2.07654536 4.40914783 2.10228696 0 1 C0 0.67 0 0.34 0 0 Z " fill="#000000" transform="translate(262,405)"/>
<path d="M0 0 C4.29 0.33 8.58 0.66 13 1 C13 1.33 13 1.66 13 2 C8.48382401 2.07654536 4.40914783 2.10228696 0 1 C0 0.67 0 0.34 0 0 Z " fill="#000000" transform="translate(206,405)"/>
<path d="M0 0 C4.29 0 8.58 0 13 0 C13 0.33 13 0.66 13 1 C8.71 1 4.42 1 0 1 C0 0.67 0 0.34 0 0 Z " fill="#000000" transform="translate(399,406)"/>
<path d="M0 0 C4.29 0 8.58 0 13 0 C13 0.33 13 0.66 13 1 C8.71 1 4.42 1 0 1 C0 0.67 0 0.34 0 0 Z " fill="#000000" transform="translate(343,406)"/>
<path d="M0 0 C4.29 0 8.58 0 13 0 C13 0.33 13 0.66 13 1 C8.71 1 4.42 1 0 1 C0 0.67 0 0.34 0 0 Z " fill="#000000" transform="translate(284,379)"/>
<path d="M0 0 C4.29 0 8.58 0 13 0 C13 0.33 13 0.66 13 1 C8.71 1 4.42 1 0 1 C0 0.67 0 0.34 0 0 Z " fill="#000000" transform="translate(343,357)"/>
<path d="M0 0 C0.33 0.66 0.66 1.32 1 2 C0.0625 4.125 0.0625 4.125 -1 6 C-1.99 4.68 -2.98 3.36 -4 2 C-2.68 1.34 -1.36 0.68 0 0 Z " fill="#000000" transform="translate(341,359)"/>
<path d="M0 0 C0.33 0 0.66 0 1 0 C1 3.63 1 7.26 1 11 C0.67 11 0.34 11 0 11 C0 7.37 0 3.74 0 0 Z " fill="#000000" transform="translate(316,376)"/>
<path d="M0 0 C3.63 0 7.26 0 11 0 C11 0.33 11 0.66 11 1 C7.37 1 3.74 1 0 1 C0 0.67 0 0.34 0 0 Z " fill="#000000" transform="translate(362,357)"/>
<path d="M0 0 C3.63 0 7.26 0 11 0 C11 0.33 11 0.66 11 1 C7.37 1 3.74 1 0 1 C0 0.67 0 0.34 0 0 Z " fill="#000000" transform="translate(387,356)"/>
<path d="M0 0 C6.0546875 -0.1953125 6.0546875 -0.1953125 8 0 C8.66 0.66 9.32 1.32 10 2 C6.7 1.67 3.4 1.34 0 1 C0 0.67 0 0.34 0 0 Z " fill="#000000" transform="translate(217,356)"/>
<path d="M0 0 C-3.47325181 1.1577506 -6.36067448 1.06866652 -10 1 C-10 0.67 -10 0.34 -10 0 C-6.33694766 -0.74926071 -3.57644848 -1.2380014 0 0 Z " fill="#000000" transform="translate(163,356)"/>
<path d="M0 0 C0.33 0 0.66 0 1 0 C1.33 3.3 1.66 6.6 2 10 C0.0044484 6.00889681 -0.19546065 4.30013434 0 0 Z " fill="#000000" transform="translate(198,238)"/>
<path d="M0 0 C3.63 0 7.26 0 11 0 C11 0.33 11 0.66 11 1 C7.37 1 3.74 1 0 1 C0 0.67 0 0.34 0 0 Z " fill="#000000" transform="translate(256,120)"/>
<path d="M0 0 C0.33 0 0.66 0 1 0 C1 3.3 1 6.6 1 10 C0.67 10 0.34 10 0 10 C0 6.7 0 3.4 0 0 Z " fill="#000000" transform="translate(260,376)"/>
<path d="M0 0 C0.33 0 0.66 0 1 0 C1 3.3 1 6.6 1 10 C0.67 10 0.34 10 0 10 C0 6.7 0 3.4 0 0 Z " fill="#000000" transform="translate(204,376)"/>
<path d="M0 0 C3.3 0 6.6 0 10 0 C10 0.33 10 0.66 10 1 C6.7 1 3.4 1 0 1 C0 0.67 0 0.34 0 0 Z " fill="#000000" transform="translate(235,320)"/>
<path d="M0 0 C0.33 0 0.66 0 1 0 C1 2.97 1 5.94 1 9 C0.67 9 0.34 9 0 9 C0 6.03 0 3.06 0 0 Z " fill="#000000" transform="translate(186,389)"/>
<path d="M0 0 C0.33 0 0.66 0 1 0 C1 2.97 1 5.94 1 9 C0.67 9 0.34 9 0 9 C0 6.03 0 3.06 0 0 Z " fill="#000000" transform="translate(180,215)"/>
<path d="M0 0 C1 3 1 3 0.0625 5.1875 C-0.4634375 6.0846875 -0.4634375 6.0846875 -1 7 C-0.67 4.69 -0.34 2.38 0 0 Z " fill="#000000" transform="translate(244,371)"/>
<path d="M0 0 C2.64 0 5.28 0 8 0 C8 0.33 8 0.66 8 1 C5.36 1 2.72 1 0 1 C0 0.67 0 0.34 0 0 Z " fill="#000000" transform="translate(428,342)"/>
<path d="M0 0 C2 3 2 3 1.625 5.1875 C1.315625 6.0846875 1.315625 6.0846875 1 7 C0.67 4.69 0.34 2.38 0 0 Z " fill="#000000" transform="translate(203,259)"/>
<path d="M0 0 C0.33 0 0.66 0 1 0 C1 2.64 1 5.28 1 8 C0.67 8 0.34 8 0 8 C0 5.36 0 2.72 0 0 Z " fill="#000000" transform="translate(325,165)"/>
<path d="M0 0 C0 0.99 0 1.98 0 3 C-0.99 3.66 -1.98 4.32 -3 5 C-1.125 1.125 -1.125 1.125 0 0 Z " fill="#000000" transform="translate(217,134)"/>
<path d="M0 0 C2.31 0 4.62 0 7 0 C7 0.33 7 0.66 7 1 C4.69 1 2.38 1 0 1 C0 0.67 0 0.34 0 0 Z " fill="#000000" transform="translate(104,405)"/>
<path d="M0 0 C0.99 1.485 0.99 1.485 2 3 C1.67 3.99 1.34 4.98 1 6 C0.67 4.02 0.34 2.04 0 0 Z " fill="#000000" transform="translate(133,382)"/>
<path d="M0 0 C0.33 0 0.66 0 1 0 C1 2.31 1 4.62 1 7 C0.67 7 0.34 7 0 7 C0 4.69 0 2.38 0 0 Z " fill="#000000" transform="translate(298,378)"/>
<path d="M0 0 C2.31 0 4.62 0 7 0 C7 0.33 7 0.66 7 1 C4.69 1 2.38 1 0 1 C0 0.67 0 0.34 0 0 Z " fill="#000000" transform="translate(439,372)"/>
<path d="M0 0 C1.98 0.99 1.98 0.99 4 2 C3.67 2.66 3.34 3.32 3 4 C2.01 2.68 1.02 1.36 0 0 Z " fill="#000000" transform="translate(111,363)"/>
<path d="M0 0 C2.31 0 4.62 0 7 0 C7 0.33 7 0.66 7 1 C4.69 1 2.38 1 0 1 C0 0.67 0 0.34 0 0 Z " fill="#000000" transform="translate(207,356)"/>
<path d="M0 0 C0.33 0 0.66 0 1 0 C1 2.31 1 4.62 1 7 C0.67 7 0.34 7 0 7 C0 4.69 0 2.38 0 0 Z " fill="#000000" transform="translate(195,218)"/>
<path d="M0 0 C0.33 0 0.66 0 1 0 C1 2.31 1 4.62 1 7 C0.67 7 0.34 7 0 7 C0 4.69 0 2.38 0 0 Z " fill="#000000" transform="translate(340,165)"/>
<path d="M0 0 C1.98 0 3.96 0 6 0 C6 0.33 6 0.66 6 1 C4.02 1 2.04 1 0 1 C0 0.67 0 0.34 0 0 Z " fill="#000000" transform="translate(219,405)"/>
<path d="M0 0 C0.33 0.66 0.66 1.32 1 2 C0.01 3.485 0.01 3.485 -1 5 C-0.67 3.35 -0.34 1.7 0 0 Z " fill="#000000" transform="translate(379,374)"/>
<path d="M0 0 C1.98 0 3.96 0 6 0 C6 0.33 6 0.66 6 1 C4.02 1 2.04 1 0 1 C0 0.67 0 0.34 0 0 Z " fill="#000000" transform="translate(448,372)"/>
<path d="M0 0 C1.98 0.495 1.98 0.495 4 1 C2.35 1.33 0.7 1.66 -1 2 C-0.67 1.34 -0.34 0.68 0 0 Z " fill="#000000" transform="translate(155,370)"/>
<path d="M0 0 C1.485 0.99 1.485 0.99 3 2 C2.67 2.66 2.34 3.32 2 4 C1.34 2.68 0.68 1.36 0 0 Z " fill="#000000" transform="translate(237,364)"/>
<path d="M0 0 C1.98 0 3.96 0 6 0 C6 0.33 6 0.66 6 1 C4.02 1 2.04 1 0 1 C0 0.67 0 0.34 0 0 Z " fill="#000000" transform="translate(163,356)"/>
<path d="M0 0 C1.98 0 3.96 0 6 0 C6 0.33 6 0.66 6 1 C4.02 1 2.04 1 0 1 C0 0.67 0 0.34 0 0 Z " fill="#000000" transform="translate(448,342)"/>
<path d="M0 0 C0.33 0 0.66 0 1 0 C1 1.98 1 3.96 1 6 C0.67 6 0.34 6 0 6 C0 4.02 0 2.04 0 0 Z " fill="#000000" transform="translate(197,232)"/>
<path d="M0 0 C0.33 0 0.66 0 1 0 C1 1.98 1 3.96 1 6 C0.67 6 0.34 6 0 6 C0 4.02 0 2.04 0 0 Z " fill="#000000" transform="translate(182,232)"/>
<path d="M0 0 C0.33 0 0.66 0 1 0 C1 1.98 1 3.96 1 6 C0.67 6 0.34 6 0 6 C0 4.02 0 2.04 0 0 Z " fill="#000000" transform="translate(196,226)"/>
<path d="M0 0 C0.33 0 0.66 0 1 0 C1 1.98 1 3.96 1 6 C0.67 6 0.34 6 0 6 C0 4.02 0 2.04 0 0 Z " fill="#000000" transform="translate(181,225)"/>
<path d="M0 0 C1.98 0 3.96 0 6 0 C6 0.33 6 0.66 6 1 C4.02 1 2.04 1 0 1 C0 0.67 0 0.34 0 0 Z " fill="#000000" transform="translate(251,106)"/>
<path d="M0 0 C0 0.99 0 1.98 0 3 C-0.66 2.67 -1.32 2.34 -2 2 C-1.34 1.34 -0.68 0.68 0 0 Z " fill="#000000" transform="translate(293,396)"/>
<path d="M0 0 C0.99 0.99 1.98 1.98 3 3 C2.01 2.67 1.02 2.34 0 2 C0 1.34 0 0.68 0 0 Z " fill="#000000" transform="translate(206,388)"/>
<path d="M0 0 C1.65 0 3.3 0 5 0 C5 0.33 5 0.66 5 1 C3.35 1 1.7 1 0 1 C0 0.67 0 0.34 0 0 Z " fill="#000000" transform="translate(159,369)"/>
<path d="M0 0 C0.33 0 0.66 0 1 0 C1 1.65 1 3.3 1 5 C0.67 5 0.34 5 0 5 C0 3.35 0 1.7 0 0 Z " fill="#000000" transform="translate(339,173)"/>
<path d="M0 0 C0.33 0 0.66 0 1 0 C1 1.65 1 3.3 1 5 C0.67 5 0.34 5 0 5 C0 3.35 0 1.7 0 0 Z " fill="#000000" transform="translate(339,160)"/>
<path d="M0 0 C0.66 0.33 1.32 0.66 2 1 C1.01 1 0.02 1 -1 1 C-0.67 0.67 -0.34 0.34 0 0 Z " fill="#000000" transform="translate(112,386)"/>
<path d="M0 0 C1 4 1 4 1 4 Z " fill="#000000" transform="translate(116,378)"/>
<path d="M0 0 C1 4 1 4 1 4 Z " fill="#000000" transform="translate(396,376)"/>
<path d="M0 0 C1 4 1 4 1 4 Z " fill="#000000" transform="translate(413,371)"/>
<path d="M0 0 C1 4 1 4 1 4 Z " fill="#000000" transform="translate(116,369)"/>
<path d="M0 0 C1 4 1 4 1 4 Z " fill="#000000" transform="translate(133,365)"/>
<path d="M0 0 C0.66 0.66 1.32 1.32 2 2 C1.01 2.495 1.01 2.495 0 3 C0 2.01 0 1.02 0 0 Z " fill="#000000" transform="translate(375,362)"/>
<path d="M0 0 C4 1 4 1 4 1 Z " fill="#000000" transform="translate(107,345)"/>
<path d="M0 0 C4 1 4 1 4 1 Z " fill="#000000" transform="translate(231,319)"/>
<path d="M0 0 C0 3 0 3 0 3 Z " fill="#000000" transform="translate(258,310)"/>
<path d="M0 0 C1 4 1 4 1 4 Z " fill="#000000" transform="translate(189,263)"/>
<path d="M0 0 C1 4 1 4 1 4 Z " fill="#000000" transform="translate(200,248)"/>
<path d="M0 0 C0 3 0 3 0 3 Z " fill="#000000" transform="translate(291,242)"/>
<path d="M0 0 C0 3 0 3 0 3 Z " fill="#000000" transform="translate(298,233)"/>
<path d="M0 0 C0 3 0 3 0 3 Z " fill="#000000" transform="translate(285,227)"/>
<path d="M0 0 C0 3 0 3 0 3 Z " fill="#000000" transform="translate(308,221)"/>
<path d="M0 0 C0 3 0 3 0 3 Z " fill="#000000" transform="translate(294,216)"/>
<path d="M0 0 C0 3 0 3 0 3 Z " fill="#000000" transform="translate(305,203)"/>
<path d="M0 0 C0 3 0 3 0 3 Z " fill="#000000" transform="translate(310,197)"/>
<path d="M0 0 C1 4 1 4 1 4 Z " fill="#000000" transform="translate(194,179)"/>
<path d="M0 0 C1 4 1 4 1 4 Z " fill="#000000" transform="translate(324,173)"/>
<path d="M0 0 C1 4 1 4 1 4 Z " fill="#000000" transform="translate(324,161)"/>
<path d="M0 0 C0.99 0.495 0.99 0.495 2 1 C1.67 1.66 1.34 2.32 1 3 C0.67 2.01 0.34 1.02 0 0 Z " fill="#000000" transform="translate(316,150)"/>
<path d="M0 0 C0.99 0.495 0.99 0.495 2 1 C1.67 1.66 1.34 2.32 1 3 C0.67 2.01 0.34 1.02 0 0 Z " fill="#000000" transform="translate(324,138)"/>
<path d="M0 0 C0 3 0 3 0 3 Z " fill="#000000" transform="translate(226,123)"/>
<path d="M0 0 C4 1 4 1 4 1 Z " fill="#000000" transform="translate(272,107)"/>
<path d="M0 0 C3 1 3 1 3 1 Z " fill="#000000" transform="translate(259,404)"/>
<path d="M0 0 C3 1 3 1 3 1 Z " fill="#000000" transform="translate(203,404)"/>
<path d="M0 0 C3 1 3 1 3 1 Z " fill="#000000" transform="translate(173,404)"/>
<path d="M0 0 C3 1 3 1 3 1 Z " fill="#000000" transform="translate(111,404)"/>
<path d="" fill="#000000" transform="translate(0,0)"/>
<path d="M0 0 C3 1 3 1 3 1 Z " fill="#000000" transform="translate(175,390)"/>
<path d="" fill="#000000" transform="translate(0,0)"/>
<path d="" fill="#000000" transform="translate(0,0)"/>
<path d="" fill="#000000" transform="translate(0,0)"/>
<path d="" fill="#000000" transform="translate(0,0)"/>
<path d="" fill="#000000" transform="translate(0,0)"/>
<path d="" fill="#000000" transform="translate(0,0)"/>
<path d="" fill="#000000" transform="translate(0,0)"/>
<path d="M0 0 C3 1 3 1 3 1 Z " fill="#000000" transform="translate(398,357)"/>
<path d="M0 0 C3 1 3 1 3 1 Z " fill="#000000" transform="translate(384,357)"/>
<path d="M0 0 C3 1 3 1 3 1 Z " fill="#000000" transform="translate(280,357)"/>
<path d="M0 0 C3 1 3 1 3 1 Z " fill="#000000" transform="translate(169,357)"/>
<path d="M0 0 C3 1 3 1 3 1 Z " fill="#000000" transform="translate(150,357)"/>
<path d="" fill="#000000" transform="translate(0,0)"/>
<path d="M0 0 C3 1 3 1 3 1 Z " fill="#000000" transform="translate(214,355)"/>
<path d="" fill="#000000" transform="translate(0,0)"/>
<path d="" fill="#000000" transform="translate(0,0)"/>
<path d="M0 0 C3 1 3 1 3 1 Z " fill="#000000" transform="translate(245,319)"/>
<path d="M0 0 C3 1 3 1 3 1 Z " fill="#000000" transform="translate(228,318)"/>
<path d="" fill="#000000" transform="translate(0,0)"/>
<path d="" fill="#000000" transform="translate(0,0)"/>
<path d="" fill="#000000" transform="translate(0,0)"/>
<path d="" fill="#000000" transform="translate(0,0)"/>
<path d="" fill="#000000" transform="translate(0,0)"/>
<path d="" fill="#000000" transform="translate(0,0)"/>
<path d="" fill="#000000" transform="translate(0,0)"/>
<path d="" fill="#000000" transform="translate(0,0)"/>
<path d="" fill="#000000" transform="translate(0,0)"/>
<path d="" fill="#000000" transform="translate(0,0)"/>
<path d="" fill="#000000" transform="translate(0,0)"/>
<path d="" fill="#000000" transform="translate(0,0)"/>
<path d="" fill="#000000" transform="translate(0,0)"/>
<path d="" fill="#000000" transform="translate(0,0)"/>
<path d="" fill="#000000" transform="translate(0,0)"/>
<path d="" fill="#000000" transform="translate(0,0)"/>
<path d="" fill="#000000" transform="translate(0,0)"/>
<path d="" fill="#000000" transform="translate(0,0)"/>
<path d="" fill="#000000" transform="translate(0,0)"/>
<path d="" fill="#000000" transform="translate(0,0)"/>
<path d="" fill="#000000" transform="translate(0,0)"/>
<path d="" fill="#000000" transform="translate(0,0)"/>
<path d="" fill="#000000" transform="translate(0,0)"/>
<path d="" fill="#000000" transform="translate(0,0)"/>
<path d="M0 0 C3 1 3 1 3 1 Z " fill="#000000" transform="translate(278,124)"/>
<path d="M0 0 C3 1 3 1 3 1 Z " fill="#000000" transform="translate(275,123)"/>
<path d="M0 0 C3 1 3 1 3 1 Z " fill="#000000" transform="translate(282,110)"/>
<path d="M0 0 C3 1 3 1 3 1 Z " fill="#000000" transform="translate(276,108)"/>
<path d="M0 0 C3 1 3 1 3 1 Z " fill="#000000" transform="translate(248,107)"/>
<path d="M0 0 C2 1 2 1 2 1 Z " fill="#000000" transform="translate(313,404)"/>
<path d="M0 0 C2 1 2 1 2 1 Z " fill="#000000" transform="translate(257,403)"/>
<path d="M0 0 C2 1 2 1 2 1 Z " fill="#000000" transform="translate(201,403)"/>
<path d="M0 0 C2 1 2 1 2 1 Z " fill="#000000" transform="translate(176,403)"/>
<path d="M0 0 C2 1 2 1 2 1 Z " fill="#000000" transform="translate(114,403)"/>
<path d="M0 0 C2 1 2 1 2 1 Z " fill="#000000" transform="translate(116,402)"/>
<path d="" fill="#000000" transform="translate(0,0)"/>
<path d="" fill="#000000" transform="translate(0,0)"/>
<path d="" fill="#000000" transform="translate(0,0)"/>
<path d="" fill="#000000" transform="translate(0,0)"/>
<path d="" fill="#000000" transform="translate(0,0)"/>
<path d="" fill="#000000" transform="translate(0,0)"/>
<path d="" fill="#000000" transform="translate(0,0)"/>
<path d="" fill="#000000" transform="translate(0,0)"/>
<path d="" fill="#000000" transform="translate(0,0)"/>
<path d="" fill="#000000" transform="translate(0,0)"/>
<path d="" fill="#000000" transform="translate(0,0)"/>
<path d="" fill="#000000" transform="translate(0,0)"/>
<path d="" fill="#000000" transform="translate(0,0)"/>
<path d="" fill="#000000" transform="translate(0,0)"/>
<path d="" fill="#000000" transform="translate(0,0)"/>
<path d="" fill="#000000" transform="translate(0,0)"/>
<path d="" fill="#000000" transform="translate(0,0)"/>
<path d="" fill="#000000" transform="translate(0,0)"/>
<path d="" fill="#000000" transform="translate(0,0)"/>
<path d="" fill="#000000" transform="translate(0,0)"/>
<path d="" fill="#000000" transform="translate(0,0)"/>
<path d="" fill="#000000" transform="translate(0,0)"/>
<path d="" fill="#000000" transform="translate(0,0)"/>
<path d="" fill="#000000" transform="translate(0,0)"/>
<path d="" fill="#000000" transform="translate(0,0)"/>
<path d="" fill="#000000" transform="translate(0,0)"/>
<path d="" fill="#000000" transform="translate(0,0)"/>
<path d="" fill="#000000" transform="translate(0,0)"/>
<path d="" fill="#000000" transform="translate(0,0)"/>
<path d="" fill="#000000" transform="translate(0,0)"/>
<path d="" fill="#000000" transform="translate(0,0)"/>
<path d="M0 0 C2 1 2 1 2 1 Z " fill="#000000" transform="translate(381,372)"/>
<path d="" fill="#000000" transform="translate(0,0)"/>
<path d="" fill="#000000" transform="translate(0,0)"/>
<path d="" fill="#000000" transform="translate(0,0)"/>
<path d="" fill="#000000" transform="translate(0,0)"/>
<path d="" fill="#000000" transform="translate(0,0)"/>
<path d="" fill="#000000" transform="translate(0,0)"/>
<path d="" fill="#000000" transform="translate(0,0)"/>
<path d="" fill="#000000" transform="translate(0,0)"/>
<path d="" fill="#000000" transform="translate(0,0)"/>
<path d="" fill="#000000" transform="translate(0,0)"/>
<path d="" fill="#000000" transform="translate(0,0)"/>
<path d="" fill="#000000" transform="translate(0,0)"/>
<path d="" fill="#000000" transform="translate(0,0)"/>
<path d="" fill="#000000" transform="translate(0,0)"/>
<path d="" fill="#000000" transform="translate(0,0)"/>
<path d="" fill="#000000" transform="translate(0,0)"/>
<path d="" fill="#000000" transform="translate(0,0)"/>
<path d="" fill="#000000" transform="translate(0,0)"/>
<path d="" fill="#000000" transform="translate(0,0)"/>
<path d="" fill="#000000" transform="translate(0,0)"/>
<path d="" fill="#000000" transform="translate(0,0)"/>
<path d="M0 0 C2 1 2 1 2 1 Z " fill="#000000" transform="translate(198,360)"/>
<path d="" fill="#000000" transform="translate(0,0)"/>
<path d="" fill="#000000" transform="translate(0,0)"/>
<path d="M0 0 C2 1 2 1 2 1 Z " fill="#000000" transform="translate(401,358)"/>
<path d="M0 0 C2 1 2 1 2 1 Z " fill="#000000" transform="translate(283,358)"/>
<path d="M0 0 C2 1 2 1 2 1 Z " fill="#000000" transform="translate(148,358)"/>
<path d="" fill="#000000" transform="translate(0,0)"/>
<path d="M0 0 C2 1 2 1 2 1 Z " fill="#000000" transform="translate(330,357)"/>
<path d="" fill="#000000" transform="translate(0,0)"/>
<path d="" fill="#000000" transform="translate(0,0)"/>
<path d="" fill="#000000" transform="translate(0,0)"/>
<path d="M0 0 C2 1 2 1 2 1 Z " fill="#000000" transform="translate(118,349)"/>
<path d="" fill="#000000" transform="translate(0,0)"/>
<path d="M0 0 C2 1 2 1 2 1 Z " fill="#000000" transform="translate(116,348)"/>
<path d="" fill="#000000" transform="translate(0,0)"/>
<path d="M0 0 C2 1 2 1 2 1 Z " fill="#000000" transform="translate(114,347)"/>
<path d="" fill="#000000" transform="translate(0,0)"/>
<path d="M0 0 C2 1 2 1 2 1 Z " fill="#000000" transform="translate(248,318)"/>
<path d="M0 0 C2 1 2 1 2 1 Z " fill="#000000" transform="translate(226,317)"/>
<path d="" fill="#000000" transform="translate(0,0)"/>
<path d="" fill="#000000" transform="translate(0,0)"/>
<path d="" fill="#000000" transform="translate(0,0)"/>
<path d="" fill="#000000" transform="translate(0,0)"/>
<path d="" fill="#000000" transform="translate(0,0)"/>
<path d="" fill="#000000" transform="translate(0,0)"/>
<path d="" fill="#000000" transform="translate(0,0)"/>
<path d="" fill="#000000" transform="translate(0,0)"/>
<path d="" fill="#000000" transform="translate(0,0)"/>
<path d="" fill="#000000" transform="translate(0,0)"/>
<path d="" fill="#000000" transform="translate(0,0)"/>
<path d="" fill="#000000" transform="translate(0,0)"/>
<path d="" fill="#000000" transform="translate(0,0)"/>
<path d="" fill="#000000" transform="translate(0,0)"/>
<path d="" fill="#000000" transform="translate(0,0)"/>
<path d="" fill="#000000" transform="translate(0,0)"/>
<path d="" fill="#000000" transform="translate(0,0)"/>
<path d="" fill="#000000" transform="translate(0,0)"/>
<path d="" fill="#000000" transform="translate(0,0)"/>
<path d="" fill="#000000" transform="translate(0,0)"/>
<path d="" fill="#000000" transform="translate(0,0)"/>
<path d="" fill="#000000" transform="translate(0,0)"/>
<path d="" fill="#000000" transform="translate(0,0)"/>
<path d="" fill="#000000" transform="translate(0,0)"/>
<path d="" fill="#000000" transform="translate(0,0)"/>
<path d="" fill="#000000" transform="translate(0,0)"/>
<path d="" fill="#000000" transform="translate(0,0)"/>
<path d="" fill="#000000" transform="translate(0,0)"/>
<path d="" fill="#000000" transform="translate(0,0)"/>
<path d="" fill="#000000" transform="translate(0,0)"/>
<path d="" fill="#000000" transform="translate(0,0)"/>
<path d="" fill="#000000" transform="translate(0,0)"/>
<path d="" fill="#000000" transform="translate(0,0)"/>
<path d="" fill="#000000" transform="translate(0,0)"/>
<path d="" fill="#000000" transform="translate(0,0)"/>
<path d="" fill="#000000" transform="translate(0,0)"/>
<path d="" fill="#000000" transform="translate(0,0)"/>
<path d="" fill="#000000" transform="translate(0,0)"/>
<path d="" fill="#000000" transform="translate(0,0)"/>
<path d="" fill="#000000" transform="translate(0,0)"/>
<path d="" fill="#000000" transform="translate(0,0)"/>
<path d="" fill="#000000" transform="translate(0,0)"/>
<path d="" fill="#000000" transform="translate(0,0)"/>
<path d="" fill="#000000" transform="translate(0,0)"/>
<path d="" fill="#000000" transform="translate(0,0)"/>
<path d="" fill="#000000" transform="translate(0,0)"/>
<path d="" fill="#000000" transform="translate(0,0)"/>
<path d="" fill="#000000" transform="translate(0,0)"/>
<path d="" fill="#000000" transform="translate(0,0)"/>
<path d="" fill="#000000" transform="translate(0,0)"/>
<path d="" fill="#000000" transform="translate(0,0)"/>
<path d="" fill="#000000" transform="translate(0,0)"/>
<path d="" fill="#000000" transform="translate(0,0)"/>
<path d="" fill="#000000" transform="translate(0,0)"/>
<path d="" fill="#000000" transform="translate(0,0)"/>
<path d="" fill="#000000" transform="translate(0,0)"/>
<path d="" fill="#000000" transform="translate(0,0)"/>
<path d="" fill="#000000" transform="translate(0,0)"/>
<path d="" fill="#000000" transform="translate(0,0)"/>
<path d="" fill="#000000" transform="translate(0,0)"/>
<path d="" fill="#000000" transform="translate(0,0)"/>
<path d="" fill="#000000" transform="translate(0,0)"/>
<path d="" fill="#000000" transform="translate(0,0)"/>
<path d="" fill="#000000" transform="translate(0,0)"/>
<path d="" fill="#000000" transform="translate(0,0)"/>
<path d="" fill="#000000" transform="translate(0,0)"/>
<path d="" fill="#000000" transform="translate(0,0)"/>
<path d="" fill="#000000" transform="translate(0,0)"/>
<path d="" fill="#000000" transform="translate(0,0)"/>
<path d="" fill="#000000" transform="translate(0,0)"/>
<path d="" fill="#000000" transform="translate(0,0)"/>
<path d="" fill="#000000" transform="translate(0,0)"/>
<path d="" fill="#000000" transform="translate(0,0)"/>
<path d="" fill="#000000" transform="translate(0,0)"/>
<path d="" fill="#000000" transform="translate(0,0)"/>
<path d="" fill="#000000" transform="translate(0,0)"/>
<path d="" fill="#000000" transform="translate(0,0)"/>
<path d="" fill="#000000" transform="translate(0,0)"/>
<path d="" fill="#000000" transform="translate(0,0)"/>
<path d="" fill="#000000" transform="translate(0,0)"/>
<path d="" fill="#000000" transform="translate(0,0)"/>
<path d="" fill="#000000" transform="translate(0,0)"/>
<path d="" fill="#000000" transform="translate(0,0)"/>
<path d="" fill="#000000" transform="translate(0,0)"/>
<path d="" fill="#000000" transform="translate(0,0)"/>
<path d="" fill="#000000" transform="translate(0,0)"/>
<path d="" fill="#000000" transform="translate(0,0)"/>
<path d="" fill="#000000" transform="translate(0,0)"/>
<path d="" fill="#000000" transform="translate(0,0)"/>
<path d="" fill="#000000" transform="translate(0,0)"/>
<path d="" fill="#000000" transform="translate(0,0)"/>
<path d="" fill="#000000" transform="translate(0,0)"/>
<path d="" fill="#000000" transform="translate(0,0)"/>
<path d="" fill="#000000" transform="translate(0,0)"/>
<path d="M0 0 C2 1 2 1 2 1 Z " fill="#000000" transform="translate(293,130)"/>
<path d="" fill="#000000" transform="translate(0,0)"/>
<path d="" fill="#000000" transform="translate(0,0)"/>
<path d="" fill="#000000" transform="translate(0,0)"/>
<path d="M0 0 C2 1 2 1 2 1 Z " fill="#000000" transform="translate(293,114)"/>
<path d="" fill="#000000" transform="translate(0,0)"/>
<path d="" fill="#000000" transform="translate(0,0)"/>
<path d="" fill="#000000" transform="translate(0,0)"/>
<path d="" fill="#000000" transform="translate(0,0)"/>
<path d="" fill="#000000" transform="translate(0,0)"/>
<path d="" fill="#000000" transform="translate(0,0)"/>
<path d="" fill="#000000" transform="translate(0,0)"/>
<path d="" fill="#000000" transform="translate(0,0)"/>
<path d="" fill="#000000" transform="translate(0,0)"/>
<path d="" fill="#000000" transform="translate(0,0)"/>
<path d="" fill="#000000" transform="translate(0,0)"/>
<path d="" fill="#000000" transform="translate(0,0)"/>
<path d="" fill="#000000" transform="translate(0,0)"/>
<path d="" fill="#000000" transform="translate(0,0)"/>
<path d="" fill="#000000" transform="translate(0,0)"/>
<path d="" fill="#000000" transform="translate(0,0)"/>
<path d="" fill="#000000" transform="translate(0,0)"/>
<path d="" fill="#000000" transform="translate(0,0)"/>
<path d="" fill="#000000" transform="translate(0,0)"/>
<path d="" fill="#000000" transform="translate(0,0)"/>
<path d="" fill="#000000" transform="translate(0,0)"/>
<path d="" fill="#000000" transform="translate(0,0)"/>
<path d="" fill="#000000" transform="translate(0,0)"/>
<path d="" fill="#000000" transform="translate(0,0)"/>
<path d="" fill="#000000" transform="translate(0,0)"/>
<path d="" fill="#000000" transform="translate(0,0)"/>
<path d="" fill="#000000" transform="translate(0,0)"/>
<path d="" fill="#000000" transform="translate(0,0)"/>
<path d="" fill="#000000" transform="translate(0,0)"/>
<path d="" fill="#000000" transform="translate(0,0)"/>
<path d="" fill="#000000" transform="translate(0,0)"/>
<path d="" fill="#000000" transform="translate(0,0)"/>
<path d="" fill="#000000" transform="translate(0,0)"/>
<path d="" fill="#000000" transform="translate(0,0)"/>
<path d="" fill="#000000" transform="translate(0,0)"/>
<path d="" fill="#000000" transform="translate(0,0)"/>
<path d="" fill="#000000" transform="translate(0,0)"/>
<path d="" fill="#000000" transform="translate(0,0)"/>
<path d="" fill="#000000" transform="translate(0,0)"/>
<path d="" fill="#000000" transform="translate(0,0)"/>
<path d="" fill="#000000" transform="translate(0,0)"/>
<path d="" fill="#000000" transform="translate(0,0)"/>
<path d="" fill="#000000" transform="translate(0,0)"/>
<path d="" fill="#000000" transform="translate(0,0)"/>
<path d="" fill="#000000" transform="translate(0,0)"/>
<path d="" fill="#000000" transform="translate(0,0)"/>
<path d="" fill="#000000" transform="translate(0,0)"/>
<path d="" fill="#000000" transform="translate(0,0)"/>
<path d="" fill="#000000" transform="translate(0,0)"/>
<path d="" fill="#000000" transform="translate(0,0)"/>
<path d="" fill="#000000" transform="translate(0,0)"/>
<path d="" fill="#000000" transform="translate(0,0)"/>
<path d="" fill="#000000" transform="translate(0,0)"/>
<path d="" fill="#000000" transform="translate(0,0)"/>
<path d="" fill="#000000" transform="translate(0,0)"/>
<path d="" fill="#000000" transform="translate(0,0)"/>
<path d="" fill="#000000" transform="translate(0,0)"/>
<path d="" fill="#000000" transform="translate(0,0)"/>
<path d="" fill="#000000" transform="translate(0,0)"/>
<path d="" fill="#000000" transform="translate(0,0)"/>
<path d="" fill="#000000" transform="translate(0,0)"/>
<path d="" fill="#000000" transform="translate(0,0)"/>
<path d="" fill="#000000" transform="translate(0,0)"/>
<path d="" fill="#000000" transform="translate(0,0)"/>
<path d="" fill="#000000" transform="translate(0,0)"/>
<path d="" fill="#000000" transform="translate(0,0)"/>
<path d="" fill="#000000" transform="translate(0,0)"/>
<path d="" fill="#000000" transform="translate(0,0)"/>
<path d="" fill="#000000" transform="translate(0,0)"/>
<path d="" fill="#000000" transform="translate(0,0)"/>
<path d="" fill="#000000" transform="translate(0,0)"/>
<path d="" fill="#000000" transform="translate(0,0)"/>
<path d="" fill="#000000" transform="translate(0,0)"/>
<path d="" fill="#000000" transform="translate(0,0)"/>
<path d="" fill="#000000" transform="translate(0,0)"/>
<path d="" fill="#000000" transform="translate(0,0)"/>
<path d="" fill="#000000" transform="translate(0,0)"/>
<path d="" fill="#000000" transform="translate(0,0)"/>
<path d="" fill="#000000" transform="translate(0,0)"/>
<path d="" fill="#000000" transform="translate(0,0)"/>
<path d="" fill="#000000" transform="translate(0,0)"/>
<path d="" fill="#000000" transform="translate(0,0)"/>
<path d="" fill="#000000" transform="translate(0,0)"/>
<path d="" fill="#000000" transform="translate(0,0)"/>
<path d="" fill="#000000" transform="translate(0,0)"/>
<path d="" fill="#000000" transform="translate(0,0)"/>
<path d="" fill="#000000" transform="translate(0,0)"/>
<path d="" fill="#000000" transform="translate(0,0)"/>
<path d="" fill="#000000" transform="translate(0,0)"/>
<path d="" fill="#000000" transform="translate(0,0)"/>
<path d="" fill="#000000" transform="translate(0,0)"/>
<path d="" fill="#000000" transform="translate(0,0)"/>
<path d="" fill="#000000" transform="translate(0,0)"/>
<path d="" fill="#000000" transform="translate(0,0)"/>
<path d="" fill="#000000" transform="translate(0,0)"/>
<path d="" fill="#000000" transform="translate(0,0)"/>
<path d="" fill="#000000" transform="translate(0,0)"/>
<path d="" fill="#000000" transform="translate(0,0)"/>
<path d="" fill="#000000" transform="translate(0,0)"/>
<path d="" fill="#000000" transform="translate(0,0)"/>
<path d="" fill="#000000" transform="translate(0,0)"/>
<path d="" fill="#000000" transform="translate(0,0)"/>
<path d="" fill="#000000" transform="translate(0,0)"/>
<path d="" fill="#000000" transform="translate(0,0)"/>
<path d="" fill="#000000" transform="translate(0,0)"/>
<path d="" fill="#000000" transform="translate(0,0)"/>
<path d="" fill="#000000" transform="translate(0,0)"/>
<path d="" fill="#000000" transform="translate(0,0)"/>
<path d="" fill="#000000" transform="translate(0,0)"/>
<path d="" fill="#000000" transform="translate(0,0)"/>
<path d="" fill="#000000" transform="translate(0,0)"/>
<path d="" fill="#000000" transform="translate(0,0)"/>
<path d="" fill="#000000" transform="translate(0,0)"/>
<path d="" fill="#000000" transform="translate(0,0)"/>
<path d="" fill="#000000" transform="translate(0,0)"/>
<path d="" fill="#000000" transform="translate(0,0)"/>
<path d="" fill="#000000" transform="translate(0,0)"/>
<path d="" fill="#000000" transform="translate(0,0)"/>
<path d="" fill="#000000" transform="translate(0,0)"/>
<path d="" fill="#000000" transform="translate(0,0)"/>
<path d="" fill="#000000" transform="translate(0,0)"/>
<path d="" fill="#000000" transform="translate(0,0)"/>
<path d="" fill="#000000" transform="translate(0,0)"/>
<path d="" fill="#000000" transform="translate(0,0)"/>
<path d="" fill="#000000" transform="translate(0,0)"/>
<path d="" fill="#000000" transform="translate(0,0)"/>
<path d="" fill="#000000" transform="translate(0,0)"/>
<path d="" fill="#000000" transform="translate(0,0)"/>
<path d="" fill="#000000" transform="translate(0,0)"/>
<path d="" fill="#000000" transform="translate(0,0)"/>
<path d="" fill="#000000" transform="translate(0,0)"/>
<path d="" fill="#000000" transform="translate(0,0)"/>
<path d="" fill="#000000" transform="translate(0,0)"/>
<path d="" fill="#000000" transform="translate(0,0)"/>
<path d="" fill="#000000" transform="translate(0,0)"/>
<path d="" fill="#000000" transform="translate(0,0)"/>
<path d="" fill="#000000" transform="translate(0,0)"/>
<path d="" fill="#000000" transform="translate(0,0)"/>
<path d="" fill="#000000" transform="translate(0,0)"/>
<path d="" fill="#000000" transform="translate(0,0)"/>
<path d="" fill="#000000" transform="translate(0,0)"/>
<path d="" fill="#000000" transform="translate(0,0)"/>
<path d="" fill="#000000" transform="translate(0,0)"/>
<path d="" fill="#000000" transform="translate(0,0)"/>
<path d="" fill="#000000" transform="translate(0,0)"/>
<path d="" fill="#000000" transform="translate(0,0)"/>
<path d="" fill="#000000" transform="translate(0,0)"/>
<path d="" fill="#000000" transform="translate(0,0)"/>
<path d="" fill="#000000" transform="translate(0,0)"/>
<path d="" fill="#000000" transform="translate(0,0)"/>
<path d="" fill="#000000" transform="translate(0,0)"/>
<path d="" fill="#000000" transform="translate(0,0)"/>
<path d="" fill="#000000" transform="translate(0,0)"/>
<path d="" fill="#000000" transform="translate(0,0)"/>
<path d="" fill="#000000" transform="translate(0,0)"/>
<path d="" fill="#000000" transform="translate(0,0)"/>
<path d="" fill="#000000" transform="translate(0,0)"/>
<path d="" fill="#000000" transform="translate(0,0)"/>
<path d="" fill="#000000" transform="translate(0,0)"/>
<path d="" fill="#000000" transform="translate(0,0)"/>
<path d="" fill="#000000" transform="translate(0,0)"/>
<path d="" fill="#000000" transform="translate(0,0)"/>
<path d="" fill="#000000" transform="translate(0,0)"/>
<path d="" fill="#000000" transform="translate(0,0)"/>
<path d="" fill="#000000" transform="translate(0,0)"/>
<path d="" fill="#000000" transform="translate(0,0)"/>
<path d="" fill="#000000" transform="translate(0,0)"/>
<path d="" fill="#000000" transform="translate(0,0)"/>
<path d="" fill="#000000" transform="translate(0,0)"/>
<path d="" fill="#000000" transform="translate(0,0)"/>
<path d="" fill="#000000" transform="translate(0,0)"/>
<path d="" fill="#000000" transform="translate(0,0)"/>
<path d="" fill="#000000" transform="translate(0,0)"/>
<path d="" fill="#000000" transform="translate(0,0)"/>
<path d="" fill="#000000" transform="translate(0,0)"/>
<path d="" fill="#000000" transform="translate(0,0)"/>
<path d="" fill="#000000" transform="translate(0,0)"/>
<path d="" fill="#000000" transform="translate(0,0)"/>
<path d="" fill="#000000" transform="translate(0,0)"/>
<path d="" fill="#000000" transform="translate(0,0)"/>
<path d="" fill="#000000" transform="translate(0,0)"/>
<path d="" fill="#000000" transform="translate(0,0)"/>
<path d="" fill="#000000" transform="translate(0,0)"/>
<path d="" fill="#000000" transform="translate(0,0)"/>
<path d="" fill="#000000" transform="translate(0,0)"/>
<path d="" fill="#000000" transform="translate(0,0)"/>
<path d="" fill="#000000" transform="translate(0,0)"/>
<path d="" fill="#000000" transform="translate(0,0)"/>
<path d="" fill="#000000" transform="translate(0,0)"/>
<path d="" fill="#000000" transform="translate(0,0)"/>
<path d="" fill="#000000" transform="translate(0,0)"/>
<path d="" fill="#000000" transform="translate(0,0)"/>
<path d="" fill="#000000" transform="translate(0,0)"/>
<path d="" fill="#000000" transform="translate(0,0)"/>
<path d="" fill="#000000" transform="translate(0,0)"/>
<path d="" fill="#000000" transform="translate(0,0)"/>
<path d="" fill="#000000" transform="translate(0,0)"/>
<path d="" fill="#000000" transform="translate(0,0)"/>
<path d="" fill="#000000" transform="translate(0,0)"/>
<path d="" fill="#000000" transform="translate(0,0)"/>
<path d="" fill="#000000" transform="translate(0,0)"/>
<path d="" fill="#000000" transform="translate(0,0)"/>
<path d="" fill="#000000" transform="translate(0,0)"/>
<path d="" fill="#000000" transform="translate(0,0)"/>
<path d="" fill="#000000" transform="translate(0,0)"/>
<path d="" fill="#000000" transform="translate(0,0)"/>
<path d="" fill="#000000" transform="translate(0,0)"/>
<path d="" fill="#000000" transform="translate(0,0)"/>
<path d="" fill="#000000" transform="translate(0,0)"/>
<path d="" fill="#000000" transform="translate(0,0)"/>
<path d="" fill="#000000" transform="translate(0,0)"/>
<path d="" fill="#000000" transform="translate(0,0)"/>
<path d="" fill="#000000" transform="translate(0,0)"/>
<path d="" fill="#000000" transform="translate(0,0)"/>
<path d="" fill="#000000" transform="translate(0,0)"/>
<path d="" fill="#000000" transform="translate(0,0)"/>
<path d="" fill="#000000" transform="translate(0,0)"/>
<path d="" fill="#000000" transform="translate(0,0)"/>
<path d="" fill="#000000" transform="translate(0,0)"/>
<path d="" fill="#000000" transform="translate(0,0)"/>
<path d="" fill="#000000" transform="translate(0,0)"/>
<path d="" fill="#000000" transform="translate(0,0)"/>
<path d="" fill="#000000" transform="translate(0,0)"/>
<path d="" fill="#000000" transform="translate(0,0)"/>
<path d="" fill="#000000" transform="translate(0,0)"/>
<path d="" fill="#000000" transform="translate(0,0)"/>
<path d="" fill="#000000" transform="translate(0,0)"/>
<path d="" fill="#000000" transform="translate(0,0)"/>
<path d="" fill="#000000" transform="translate(0,0)"/>
<path d="" fill="#000000" transform="translate(0,0)"/>
<path d="" fill="#000000" transform="translate(0,0)"/>
<path d="" fill="#000000" transform="translate(0,0)"/>
<path d="" fill="#000000" transform="translate(0,0)"/>
<path d="" fill="#000000" transform="translate(0,0)"/>
<path d="" fill="#000000" transform="translate(0,0)"/>
<path d="" fill="#000000" transform="translate(0,0)"/>
<path d="" fill="#000000" transform="translate(0,0)"/>
<path d="" fill="#000000" transform="translate(0,0)"/>
<path d="" fill="#000000" transform="translate(0,0)"/>
<path d="" fill="#000000" transform="translate(0,0)"/>
<path d="" fill="#000000" transform="translate(0,0)"/>
<path d="" fill="#000000" transform="translate(0,0)"/>
<path d="" fill="#000000" transform="translate(0,0)"/>
<path d="" fill="#000000" transform="translate(0,0)"/>
<path d="" fill="#000000" transform="translate(0,0)"/>
<path d="" fill="#000000" transform="translate(0,0)"/>
<path d="" fill="#000000" transform="translate(0,0)"/>
<path d="" fill="#000000" transform="translate(0,0)"/>
<path d="" fill="#000000" transform="translate(0,0)"/>
<path d="" fill="#000000" transform="translate(0,0)"/>
<path d="" fill="#000000" transform="translate(0,0)"/>
<path d="" fill="#000000" transform="translate(0,0)"/>
<path d="" fill="#000000" transform="translate(0,0)"/>
<path d="" fill="#000000" transform="translate(0,0)"/>
<path d="" fill="#000000" transform="translate(0,0)"/>
<path d="" fill="#000000" transform="translate(0,0)"/>
<path d="" fill="#000000" transform="translate(0,0)"/>
<path d="" fill="#000000" transform="translate(0,0)"/>
<path d="" fill="#000000" transform="translate(0,0)"/>
<path d="" fill="#000000" transform="translate(0,0)"/>
<path d="" fill="#000000" transform="translate(0,0)"/>
<path d="" fill="#000000" transform="translate(0,0)"/>
</svg>
